<mxfile host="app.diagrams.net" modified="2024-04-22T21:15:40.649Z" agent="Mozilla/5.0 (Windows NT 10.0; Win64; x64) AppleWebKit/537.36 (KHTML, like Gecko) Chrome/124.0.0.0 Safari/537.36" etag="5U-59n6K_-9KyzInD2X6" version="24.2.8" type="github">
  <diagram name="Page-1" id="zk2GNx5HkSGxQTkh9nYt">
    <mxGraphModel dx="1366" dy="703" grid="1" gridSize="10" guides="1" tooltips="1" connect="1" arrows="1" fold="1" page="1" pageScale="1" pageWidth="850" pageHeight="1100" math="0" shadow="0">
      <root>
        <mxCell id="0" />
        <mxCell id="1" parent="0" />
        <mxCell id="hkkwUsSCGh0jf6OyiiRT-3" value="" style="rounded=1;whiteSpace=wrap;html=1;fillStyle=solid;fillColor=#f5f5f5;fontColor=#333333;strokeColor=#666666;" parent="1" vertex="1">
          <mxGeometry x="600" y="20" width="200" height="200" as="geometry" />
        </mxCell>
        <mxCell id="hkkwUsSCGh0jf6OyiiRT-1" value="" style="image;html=1;image=img/lib/clip_art/computers/Database_128x128.png" parent="1" vertex="1">
          <mxGeometry x="660" y="60" width="80" height="80" as="geometry" />
        </mxCell>
        <mxCell id="hkkwUsSCGh0jf6OyiiRT-2" value="PostgreSQL" style="text;strokeColor=none;align=center;fillColor=none;html=1;verticalAlign=middle;whiteSpace=wrap;rounded=0;fontFamily=Tahoma;fontSize=18;" parent="1" vertex="1">
          <mxGeometry x="645" y="130" width="110" height="60" as="geometry" />
        </mxCell>
        <mxCell id="hkkwUsSCGh0jf6OyiiRT-5" value="Supabase" style="text;strokeColor=none;align=center;fillColor=none;html=1;verticalAlign=middle;whiteSpace=wrap;rounded=0;fontFamily=Tahoma;fontSize=14;fontColor=#006633;" parent="1" vertex="1">
          <mxGeometry x="590" y="170" width="110" height="60" as="geometry" />
        </mxCell>
        <mxCell id="lj0Zras-VuIFO447LdOi-1" value="" style="rounded=0;whiteSpace=wrap;html=1;fillColor=#f5f5f5;fontColor=#333333;strokeColor=#666666;" vertex="1" parent="1">
          <mxGeometry x="600" y="280" width="200" height="60" as="geometry" />
        </mxCell>
        <mxCell id="lj0Zras-VuIFO447LdOi-2" value="Prisma ORM" style="text;strokeColor=none;align=center;fillColor=none;html=1;verticalAlign=middle;whiteSpace=wrap;rounded=0;fontFamily=Tahoma;fontSize=18;" vertex="1" parent="1">
          <mxGeometry x="645" y="280" width="110" height="60" as="geometry" />
        </mxCell>
        <mxCell id="lj0Zras-VuIFO447LdOi-3" value="" style="shape=flexArrow;endArrow=classic;html=1;rounded=0;" edge="1" parent="1">
          <mxGeometry width="50" height="50" relative="1" as="geometry">
            <mxPoint x="670" y="270" as="sourcePoint" />
            <mxPoint x="670" y="230" as="targetPoint" />
            <Array as="points">
              <mxPoint x="670" y="250" />
            </Array>
          </mxGeometry>
        </mxCell>
        <mxCell id="lj0Zras-VuIFO447LdOi-4" value="" style="shape=flexArrow;endArrow=classic;html=1;rounded=0;" edge="1" parent="1">
          <mxGeometry width="50" height="50" relative="1" as="geometry">
            <mxPoint x="740" y="230" as="sourcePoint" />
            <mxPoint x="740" y="270" as="targetPoint" />
            <Array as="points">
              <mxPoint x="740" y="250" />
            </Array>
          </mxGeometry>
        </mxCell>
        <mxCell id="lj0Zras-VuIFO447LdOi-5" value="" style="rounded=1;whiteSpace=wrap;html=1;arcSize=8;" vertex="1" parent="1">
          <mxGeometry x="40" y="240" width="480" height="450" as="geometry" />
        </mxCell>
        <mxCell id="lj0Zras-VuIFO447LdOi-6" value="Netlify" style="text;strokeColor=none;align=center;fillColor=none;html=1;verticalAlign=middle;whiteSpace=wrap;rounded=0;fontFamily=Tahoma;fontSize=14;fontColor=#006633;" vertex="1" parent="1">
          <mxGeometry x="20" y="640" width="110" height="60" as="geometry" />
        </mxCell>
        <mxCell id="lj0Zras-VuIFO447LdOi-7" value="" style="rounded=1;whiteSpace=wrap;html=1;" vertex="1" parent="1">
          <mxGeometry x="40" y="20" width="210" height="120" as="geometry" />
        </mxCell>
        <mxCell id="lj0Zras-VuIFO447LdOi-8" value="OpenAI" style="text;strokeColor=none;align=center;fillColor=none;html=1;verticalAlign=middle;whiteSpace=wrap;rounded=0;fontFamily=Tahoma;fontSize=14;fontColor=#006633;" vertex="1" parent="1">
          <mxGeometry x="20" y="90" width="110" height="60" as="geometry" />
        </mxCell>
        <mxCell id="lj0Zras-VuIFO447LdOi-9" value="GPT3.5/GPT4" style="text;strokeColor=none;align=center;fillColor=none;html=1;verticalAlign=middle;whiteSpace=wrap;rounded=0;fontFamily=Tahoma;fontSize=18;" vertex="1" parent="1">
          <mxGeometry x="90" y="50" width="110" height="60" as="geometry" />
        </mxCell>
        <mxCell id="lj0Zras-VuIFO447LdOi-33" value="" style="sketch=0;pointerEvents=1;shadow=0;dashed=0;html=1;strokeColor=none;fillColor=#505050;labelPosition=center;verticalLabelPosition=bottom;verticalAlign=top;outlineConnect=0;align=center;shape=mxgraph.office.concepts.form;" vertex="1" parent="1">
          <mxGeometry x="135" y="470" width="90" height="89.5" as="geometry" />
        </mxCell>
        <mxCell id="lj0Zras-VuIFO447LdOi-34" value="" style="verticalLabelPosition=bottom;html=1;verticalAlign=top;align=center;strokeColor=none;fillColor=#00BEF2;shape=mxgraph.azure.user;" vertex="1" parent="1">
          <mxGeometry x="82.5" y="525" width="47.5" height="50" as="geometry" />
        </mxCell>
        <mxCell id="lj0Zras-VuIFO447LdOi-35" value="Sveltekit" style="text;strokeColor=none;align=center;fillColor=none;html=1;verticalAlign=middle;whiteSpace=wrap;rounded=0;fontFamily=Tahoma;fontSize=18;" vertex="1" parent="1">
          <mxGeometry x="225" y="590" width="110" height="60" as="geometry" />
        </mxCell>
        <mxCell id="lj0Zras-VuIFO447LdOi-36" value="" style="sketch=0;pointerEvents=1;shadow=0;dashed=0;html=1;strokeColor=none;fillColor=#005F4B;labelPosition=center;verticalLabelPosition=bottom;verticalAlign=top;align=center;outlineConnect=0;shape=mxgraph.veeam2.task_list;" vertex="1" parent="1">
          <mxGeometry x="395" y="340" width="60" height="89" as="geometry" />
        </mxCell>
      </root>
    </mxGraphModel>
  </diagram>
</mxfile>
